<?xml version="1.0" encoding="UTF-8" standalone="no"?><!DOCTYPE svg PUBLIC "-//W3C//DTD SVG 1.1//EN" "http://www.w3.org/Graphics/SVG/1.1/DTD/svg11.dtd"><svg width="100%" height="100%" viewBox="0 0 1727 669" version="1.1" xmlns="http://www.w3.org/2000/svg" xmlns:xlink="http://www.w3.org/1999/xlink" xml:space="preserve" xmlns:serif="http://www.serif.com/" style="fill-rule:evenodd;clip-rule:evenodd;stroke-linecap:round;stroke-linejoin:round;stroke-miterlimit:1.5;"><rect id="hc" x="0" y="0" width="1726.88" height="668.67" style="fill:none;"/><clipPath id="_clip1"><rect x="0" y="0" width="1726.88" height="668.67"/></clipPath><g clip-path="url(#_clip1)"><g id="heroContent"><rect x="920.199" y="1.312" width="232.198" height="181.823" style="fill:#192450;"/><clipPath id="_clip2"><rect x="920.199" y="1.312" width="232.198" height="181.823"/></clipPath><g clip-path="url(#_clip2)"><path d="M1094.4,103.894l-40.676,-72l81.352,0l-40.676,72Z" style="fill:#4aca96;"/><path d="M1036.3,31.894l40.676,72l-81.352,0l40.676,-72Z" style="fill:#4aca96;"/><g id="λεττερ"><rect x="147.051" y="79.626" width="385.684" height="9.445" style="fill:#fff;"/><rect x="147.051" y="53.088" width="87.369" height="18.891" style="fill:#fff;"/><rect x="147.051" y="96.719" width="385.684" height="9.445" style="fill:#fff;"/></g><g id="letr"><rect x="937.516" y="135.514" width="197.565" height="9.445" style="fill:#fff;"/><rect x="937.516" y="153.37" width="197.565" height="9.445" style="fill:#fff;"/><rect x="937.516" y="117.658" width="197.565" height="9.445" style="fill:#fff;"/><rect x="874.94" y="21.631" width="94.847" height="36.994" style="fill:#fff;"/></g></g><rect x="1459.8" y="0.788" width="271.847" height="212.87" style="fill:#192450;"/><clipPath id="_clip3"><rect x="1459.8" y="0.788" width="271.847" height="212.87"/></clipPath><g clip-path="url(#_clip3)"><path d="M1664.24,23.728l47.622,84.294l-95.244,0l47.622,-84.294Z" style="fill:#4aca96;"/><path d="M1616.62,79.181l16.294,28.841l-32.588,0l16.294,-28.841Z" style="fill:#4aca96;"/><g id="λεττερ1" serif:id="λεττερ"><rect x="554.628" y="92.475" width="451.542" height="11.058" style="fill:#fff;"/><rect x="554.628" y="61.405" width="102.288" height="22.116" style="fill:#fff;"/><rect x="554.628" y="112.487" width="451.542" height="11.058" style="fill:#fff;"/></g><g id="letr1" serif:id="letr"><rect x="1480.07" y="162.454" width="231.3" height="7.016" style="fill:#fff;"/><rect x="1480.07" y="174.264" width="231.3" height="7.016" style="fill:#fff;"/><rect x="1480.07" y="186.391" width="231.3" height="7.016" style="fill:#fff;"/><rect x="1480.07" y="136.496" width="69.607" height="16.111" style="fill:#fff;"/><rect x="1484.68" y="21.039" width="111.043" height="43.311" style="fill:#fff;"/></g></g><rect x="0" y="0" width="551.159" height="92.223" style="fill:#192450;"/><g id="letr2" serif:id="letr"><rect x="151.424" y="43.495" width="273.446" height="9.49" style="fill:#fff;"/><rect x="151.424" y="61.434" width="273.446" height="9.49" style="fill:#fff;"/><rect x="151.424" y="25.555" width="273.446" height="9.49" style="fill:#fff;"/><path d="M535.379,52.569c0,-3.564 -2.893,-6.457 -6.457,-6.457l-75.152,0c-3.564,0 -6.458,2.893 -6.458,6.457l0,12.916c0,3.564 2.894,6.457 6.458,6.457l75.152,0c3.564,0 6.457,-2.893 6.457,-6.457l0,-12.916Z" style="fill:#d9d9d9;"/></g><rect x="91.107" y="35.307" width="18" height="35.617" style="fill:#4aca96;"/><rect x="125.613" y="57.307" width="11" height="13.617" style="fill:#4aca96;"/><rect x="111.86" y="17.597" width="11" height="53.327" style="fill:#4aca96;"/><circle cx="45.107" cy="46.112" r="25.444" style="fill:#4aca96;"/><rect x="-1.926" y="599.573" width="852.033" height="69.096" style="fill:#192450;"/><g id="letr3" serif:id="letr"><rect x="93.139" y="637.411" width="156.059" height="7.11" style="fill:#fff;"/><rect x="93.139" y="650.852" width="156.059" height="7.11" style="fill:#fff;"/></g><g id="letr4" serif:id="letr"><rect x="260.558" y="634.17" width="450.876" height="10.718" style="fill:#fff;"/><rect x="260.558" y="609.699" width="70.806" height="18.595" style="fill:#fff;"/><rect x="260.558" y="647.419" width="450.876" height="10.718" style="fill:#fff;"/></g><rect x="733.168" y="609.756" width="102.921" height="48.732" style="fill:#ededed;"/><clipPath id="_clip4"><rect x="733.168" y="609.756" width="102.921" height="48.732"/></clipPath><g clip-path="url(#_clip4)"><path d="M733.168,633.342c0,0 23.509,-18.187 56.918,-5.212c33.409,12.975 37.838,6.587 46.003,0c8.165,-6.587 0,30.358 0,30.358l-102.921,0l0,-25.146Z" style="fill:#cdcdcd;"/></g><g id="letr5" serif:id="letr"><rect x="93.139" y="610.281" width="156.059" height="7.11" style="fill:#fff;"/><rect x="93.139" y="623.723" width="156.059" height="7.11" style="fill:#fff;"/></g><path d="M712.56,611.67c0,-2.217 -1.8,-4.016 -4.016,-4.016l-93.092,0c-2.216,0 -4.016,1.799 -4.016,4.016l0,8.032c0,2.217 1.8,4.016 4.016,4.016l93.092,0c2.216,0 4.016,-1.799 4.016,-4.016l0,-8.032Z" style="fill:#4aca96;"/><g id="point"><path d="M38.882,644.799c0,0 12.299,-11.918 12.299,-24.846c0,-6.788 -5.511,-12.299 -12.299,-12.299c-6.788,0 -12.299,5.511 -12.299,12.299c0,12.928 12.299,24.846 12.299,24.846Z" style="fill:#4aca96;"/><ellipse cx="38.882" cy="654.086" rx="21.147" ry="2.789" style="fill:#4aca96;"/></g><rect x="1411.07" y="323.789" width="176.106" height="344.881" style="fill:#192450;"/><g id="σηαπε"><ellipse cx="1492.96" cy="461.793" rx="26.1" ry="30.047" style="fill:#4aca96;"/><path d="M1497.96,561.269c0,0 -17.756,1.94 -12.361,-24.895c5.395,-26.835 10.815,-35.049 7.369,-49.789" style="fill:none;stroke:#4aca96;stroke-width:3px;"/></g><rect x="1429.97" y="341.003" width="54.637" height="41.632" style="fill:#fff;"/><g id="λεττερ2" serif:id="λεττερ"><rect x="1429.97" y="619.183" width="137.448" height="11.996" style="fill:#fff;"/><rect x="1429.97" y="597.474" width="137.448" height="11.996" style="fill:#fff;"/><rect x="1429.97" y="640.892" width="137.448" height="11.996" style="fill:#fff;"/></g><path d="M1454.35,529.562l-2.849,-0.045l0.625,-39.36l-2.646,-0.042l4.281,-13.204l3.859,13.333l-2.645,-0.042l-0.625,39.36Z" style="fill:#cdcdcd;"/><path d="M1559.53,563.423l0.909,-118.372" style="fill:none;stroke:#b2b2b2;stroke-width:3px;stroke-dasharray:15,15,0,0;"/><g id="σηαπε1" serif:id="σηαπε"><ellipse cx="1533.36" cy="387.201" rx="21.362" ry="21.134" style="fill:#4aca96;"/><path d="M1537.44,457.166c0,0 -14.532,1.365 -10.116,-17.509c4.415,-18.874 8.851,-24.651 6.031,-35.019" style="fill:none;stroke:#4aca96;stroke-width:3px;"/></g><g><path d="M690.2,293.144l11.372,0l4.567,-25.851l31.329,0l-4.567,25.851l11.463,0l10.961,-62.11l-11.463,0l-4.659,26.49l-31.375,0l4.704,-26.49l-11.371,0l-10.961,62.11Z" style="fill:#4aca96;fill-rule:nonzero;"/><path d="M769.715,245.055l-7.944,2.101l-1.508,8.581l7.809,0l-3.378,19.324c-2.695,15.117 4.884,18.586 14.975,18.586l8.998,0l1.69,-9.129l-8.039,0c-4.522,0 -7.855,-2.011 -6.531,-9.548l3.38,-19.233l15.026,0l1.69,-9.585l-15.026,0l2.329,-13.383l-8.084,0.046l-5.387,12.24Z" style="fill:#4aca96;fill-rule:nonzero;"/><path d="M881.978,267.521c2.558,-14.478 -3.058,-22.785 -15.478,-22.785c-7.901,0 -14.432,3.286 -18.817,7.166c-2.558,-4.564 -7.262,-7.166 -13.839,-7.166c-6.258,0 -12.149,2.556 -16.123,5.706l-0.046,-4.29l-8.997,0l-8.313,46.992l11.099,0l4.476,-25.163c1.461,-8.59 7.307,-13.614 14.57,-13.614c6.074,0 8.906,4.202 7.262,13.474l-4.476,25.303l11.19,0l4.476,-25.303c1.461,-8.404 7.308,-13.474 14.57,-13.474c6.074,0 8.905,4.202 7.262,13.474l-4.476,25.303l11.141,0l4.519,-25.623Z" style="fill:#4aca96;fill-rule:nonzero;"/><path d="M902.715,228.75l-8.628,48.734c-2.055,11.78 0.137,15.66 13.012,15.66l2.649,0l1.69,-9.54l-2.193,0c-4.202,0 -4.887,-1.279 -4.019,-6.257l8.541,-48.597l-11.052,0Z" style="fill:#4aca96;fill-rule:nonzero;"/><path d="M942.087,240.528l24.662,0l1.689,-9.494l-34.574,0l-8.219,26.853l4.108,4.336l14.573,0.046c6.35,0 10.325,4.112 10.325,9.685c0,7.31 -6.807,13.157 -14.437,13.157c-4.934,0 -9.822,-2.786 -9.822,-9.776l-11.047,0c-1.325,14.524 8.628,19.225 19.773,19.225c14.253,0 26.808,-10.774 26.808,-24.662c0,-10.14 -6.756,-17.032 -17.9,-17.032l-9.685,0l3.746,-12.338Z" style="fill:#4aca96;fill-rule:nonzero;"/></g><g><path d="M872.072,456.451l9.676,0l-1.635,9.415c-4.418,3.227 -9.897,5.172 -15.199,5.172c-10.516,0 -17.983,-8.133 -17.983,-18.737c0,-14.007 12.548,-25.409 25.804,-25.409c6.318,0 11.399,2.651 14.536,7.071l9.014,-6.718c-4.905,-6.138 -12.725,-9.892 -22.092,-9.892c-19.883,0 -38.347,16.477 -38.347,36.14c0,15.379 11.571,27.083 27.61,27.083c9.279,0 19.706,-4.018 26.997,-10.953l-0.089,-0.044l0.089,0l3.711,-21.208l-20.678,0l-1.414,8.08Z" style="fill:#4aca96;fill-rule:nonzero;"/><path d="M903.404,479.074l10.823,0l7.995,-45.461l-10.778,0l-8.04,45.461Zm8.97,-57.526c0,2.87 2.164,5.167 5.741,5.167c4.461,0 7.862,-3.047 7.862,-6.801c0,-2.827 -2.12,-5.168 -5.742,-5.168c-4.461,0 -7.861,3.224 -7.861,6.802Z" style="fill:#4aca96;fill-rule:nonzero;"/><path d="M934.288,473.732c-0.972,4.861 -3.402,8.617 -9.146,8.617l-5.345,-0.044l-1.591,8.831l7.952,0c12.282,0 17.451,-8.875 18.865,-17.139l5.479,-31.11l12.812,0l1.634,-9.274l-12.856,0l0.309,-1.724c0.84,-4.819 3.446,-8.62 9.101,-8.62l5.39,0.044l1.546,-8.832l-7.908,0c-12.282,0 -17.451,8.876 -18.864,17.187l-0.354,1.945l-8.792,0l-1.634,9.274l8.791,0l-5.389,30.845Z" style="fill:#4aca96;fill-rule:nonzero;"/></g><g><path d="M1144.91,432.547l5.601,0l-11.439,-52.277l-5.194,0l-27.767,52.277l5.703,0l6.483,-12.225l23.931,0l2.682,12.225Zm-9.946,-43.589l0.34,-0.884l0.068,0.884l5.702,26.102l-19.993,0l13.883,-26.102Z" style="fill:#4aca96;fill-rule:nonzero;"/><path d="M1198.07,412.982c1.799,-11.496 -4.783,-20.641 -15.476,-20.641c-6.111,0 -11.712,3.264 -15.209,7.53l0.543,-6.454l-4.379,0l-8.181,52.508l5.228,0l3.123,-20.101c2.342,4.42 6.857,7.799 13.002,7.799c10.694,0 19.552,-9.145 21.349,-20.641Zm-5.258,0c-1.358,8.805 -8.453,15.418 -16.023,15.418c-6.722,0 -11.509,-5.537 -11.509,-13.111c0,-9.997 7.876,-17.763 16.296,-17.763c7.57,0 12.593,6.574 11.236,15.456Z" style="fill:#4aca96;fill-rule:nonzero;"/><path d="M1241.66,411.327c1.968,-12.648 -2.273,-18.986 -12.693,-18.986c-5.398,0 -10.66,2.995 -14.02,6.799l0.407,-5.723l-4.379,0l-6.077,39.13l5.228,0l3.259,-20.872c1.358,-8.421 7.435,-14.111 14.088,-14.111c7.028,0 10.455,4.114 8.929,13.84l-3.293,21.143l5.26,0l3.291,-21.22Z" style="fill:#4aca96;fill-rule:nonzero;"/><path d="M1249.44,416.096c0,9.843 6.344,17.22 15.442,17.22c6.145,0 11.746,-3.226 15.277,-7.454l-0.374,2.538c-0.815,5.531 -4.379,15.262 -15.276,15.262c-7.503,0 -10.965,-4.885 -11.338,-9.615l-5.055,0c-0.102,6.884 4.309,14.646 15.849,14.646c13.512,0 19.555,-11.108 21.048,-20.793l5.364,-34.483l-4.379,0l-1.63,7.035c-2.24,-4.386 -6.857,-8.073 -13.172,-8.073c-11.949,0 -21.756,10.876 -21.756,23.717l0,0Zm5.325,-0.768c0,-9.959 7.842,-17.725 16.262,-17.725c6.721,0 11.508,5.498 11.508,13.034c0,10.035 -7.842,17.763 -16.261,17.763c-6.756,0 -11.509,-5.498 -11.509,-13.072Z" style="fill:#4aca96;fill-rule:nonzero;"/></g><g><path d="M266.381,482.086l7.453,0l-1.545,8.789c-3.605,2.788 -8.423,4.546 -12.816,4.546c-8.484,0 -14.422,-6.516 -14.422,-14.879c0,-10.907 10.029,-20.029 20.603,-20.029c4.878,0 8.877,2 11.422,5.273l3.909,-2.939c-3.303,-4.029 -8.635,-6.511 -14.816,-6.511c-13.453,0 -25.932,11.329 -25.932,24.842c0,10.576 7.874,18.451 18.721,18.451c6.12,0 12.998,-2.725 17.755,-7.057l2.514,-14.118l-12.21,0l-0.636,3.632Z" style="fill:#dadada;fill-rule:nonzero;"/><path d="M287.109,485.572c0,7.819 5.844,13.905 14.329,13.905c10.606,0 19.722,-8.48 19.722,-18.632c0,-7.818 -5.874,-13.905 -14.389,-13.905c-10.636,0 -19.662,8.511 -19.662,18.632Zm4.723,-0.484c0,-7.879 6.939,-14.031 14.454,-14.031c5.939,0 10.182,4.364 10.182,10.303c0,7.879 -6.97,14 -14.455,14c-5.939,0 -10.181,-4.333 -10.181,-10.272Z" style="fill:#dadada;fill-rule:nonzero;"/><path d="M327.254,485.572c0,7.819 5.844,13.905 14.329,13.905c10.606,0 19.723,-8.48 19.723,-18.632c0,-7.818 -5.874,-13.905 -14.39,-13.905c-10.636,0 -19.662,8.511 -19.662,18.632Zm4.723,-0.484c0,-7.879 6.939,-14.031 14.455,-14.031c5.939,0 10.181,4.364 10.181,10.303c0,7.879 -6.969,14 -14.454,14c-5.94,0 -10.182,-4.333 -10.182,-10.272Z" style="fill:#dadada;fill-rule:nonzero;"/><path d="M367.278,485.663c0,7.758 5.662,13.572 13.782,13.572c5.484,0 10.484,-2.543 13.635,-5.875l-0.334,2c-0.727,4.36 -3.908,12.029 -13.634,12.029c-6.696,0 -9.785,-3.85 -10.118,-7.578l-4.512,0c-0.091,5.426 3.846,11.543 14.145,11.543c12.059,0 17.452,-8.755 18.785,-16.388l4.788,-27.177l-3.909,0l-1.454,5.544c-2,-3.456 -6.121,-6.362 -11.756,-6.362c-10.665,0 -19.418,8.571 -19.418,18.692l0,0Zm4.753,-0.606c0,-7.848 6.999,-13.97 14.513,-13.97c6,0 10.272,4.334 10.272,10.273c0,7.909 -6.999,14 -14.513,14c-6.03,0 -10.272,-4.333 -10.272,-10.303Z" style="fill:#dadada;fill-rule:nonzero;"/><path d="M415.692,455.942l-5.936,33.54c-1.12,6.634 -0.151,9.147 7.147,9.147l1.515,0l0.728,-4.117l-1.303,0c-3.606,0 -4.06,-1.182 -3.424,-5.06l5.908,-33.51l-4.635,0Z" style="fill:#dadada;fill-rule:nonzero;"/><path d="M445.659,485.297c8.575,0 11.784,-4.965 11.784,-9.693c0,-4.577 -4.42,-8.664 -12.602,-8.664c-10.455,0 -19.238,8.664 -19.238,18.661c0,7.698 5.541,13.906 13.905,13.906c5.333,0 10.121,-2.421 13.273,-5.329l-2.243,-2.788c-2.788,2.455 -6,4.061 -10.273,4.061c-5.818,0 -10,-4.334 -10.091,-10.154l15.485,0Zm-1.424,-14.391c5.697,0 8.697,2.667 8.697,5.183c0,2.818 -2.303,5.213 -7.121,5.304l-15.152,0c1.697,-6.032 7.394,-10.487 13.576,-10.487Z" style="fill:#dadada;fill-rule:nonzero;"/><path d="M491.135,498.629l4.999,0l-10.21,-41.202l-4.635,0l-24.782,41.202l5.09,0l5.786,-9.635l21.359,0l2.393,9.635Zm-8.876,-34.355l0.303,-0.697l0.06,0.697l5.09,20.573l-17.844,0l12.391,-20.573Z" style="fill:#dadada;fill-rule:nonzero;"/><path d="M502.864,483.209c-1.606,9.06 4.299,16.298 13.782,16.298c5.363,0 10.332,-2.482 13.483,-6.026l-0.546,5.148l4.06,0l7.545,-42.657l-4.666,0l-3.03,17.176c-2.121,-3.483 -6.09,-6.208 -11.604,-6.208c-9.514,0 -17.512,7.238 -19.025,16.269l0.001,0Zm4.662,0c1.212,-6.94 7.544,-12.152 14.301,-12.152c5.999,0 10.271,4.364 10.271,10.303c0,7.909 -6.999,14.031 -14.513,14.031c-6.787,0 -11.271,-5.182 -10.059,-12.182Z" style="fill:#dadada;fill-rule:nonzero;"/><path d="M542.615,496.42c3.273,2.27 7.269,3.087 11.753,3.087c9.668,0 15.755,-4.359 15.755,-11.056c0,-5.636 -5.966,-6.818 -10.754,-7.424c-5.425,-0.576 -8.213,-1.758 -8.213,-4.303c0,-2.637 2.303,-5.879 9.455,-5.879c3.91,0 7.271,1.576 9.633,2.879l2.06,-3.696c-2.817,-1.695 -6.844,-3.088 -11.389,-3.088c-10.819,0 -14.573,5.299 -14.573,10.572c0,5.333 5.571,6.485 9.936,7.06c5.334,0.819 8.667,1.728 8.667,4.788c0,3.637 -3.667,6.182 -10.546,6.182c-3.152,0 -6.513,-0.818 -9.663,-3l-2.121,3.878Z" style="fill:#dadada;fill-rule:nonzero;"/></g><g><path d="M183.612,212.965l4.74,0l-9.682,-39.071l-4.395,0l-23.5,39.071l4.826,0l5.487,-9.136l20.254,0l2.27,9.136Zm-8.418,-32.578l0.287,-0.66l0.058,0.66l4.826,19.509l-16.921,0l11.75,-19.509Z" style="fill:#dadada;fill-rule:nonzero;"/><path d="M225.33,197.106c1.666,-9.453 -1.924,-14.19 -10.743,-14.19c-4.568,0 -9.021,2.239 -11.866,5.082l0.345,-4.278l-3.706,0l-5.143,29.245l4.424,0l2.759,-15.599c1.149,-6.294 6.292,-10.546 11.923,-10.546c5.948,0 8.849,3.074 7.557,10.343l-2.787,15.802l4.452,0l2.785,-15.859Z" style="fill:#dadada;fill-rule:nonzero;"/><path d="M231.74,212.965l4.452,0l5.142,-29.245l-4.452,0l-5.142,29.245Zm5.833,-37.665c0,1.349 1.005,2.412 2.613,2.412c2.067,0 3.647,-1.465 3.647,-3.187c0,-1.35 -0.977,-2.441 -2.613,-2.441c-2.039,0 -3.647,1.493 -3.647,3.216Z" style="fill:#dadada;fill-rule:nonzero;"/><path d="M297.532,196.818c1.609,-9.165 -2.009,-13.873 -9.162,-13.873c-5.401,0 -9.768,2.497 -12.469,5.599c-1.293,-3.648 -4.396,-5.599 -8.85,-5.599c-4.51,0 -8.447,2.009 -11.061,4.622l0.287,-3.847l-3.706,0l-5.143,29.245l4.424,0l2.845,-16.173c1.149,-6.295 5.66,-9.972 11.061,-9.972c4.712,0 7.126,3.103 5.89,10.171l-2.815,15.974l4.453,0l2.845,-16.204l0.028,0c1.092,-6.235 5.66,-9.941 11.033,-9.941c4.712,0 7.125,3.103 5.89,10.171l-2.815,15.974l4.423,0l2.842,-16.147Z" style="fill:#dadada;fill-rule:nonzero;"/><path d="M304.288,200.697c0,7.387 5.369,13.274 13.327,13.274c5.143,0 9.827,-2.44 12.815,-5.657l-0.517,4.651l3.85,0l5.171,-29.245l-3.878,0l-1.236,5.143c-1.982,-3.278 -5.775,-6.12 -11.09,-6.12c-10.114,0 -18.442,8.329 -18.442,17.954Zm4.507,-0.572c0,-7.472 6.608,-13.478 13.82,-13.478c5.66,0 9.682,4.311 9.682,9.943c0,7.471 -6.694,13.477 -13.82,13.477c-5.66,0 -9.682,-4.31 -9.682,-9.942Z" style="fill:#dadada;fill-rule:nonzero;"/><path d="M350.887,183.347l-5.255,0.718l-0.603,3.559l5.198,0l-2.526,14.34c-1.523,8.792 2.526,11.49 8.472,11.49l5.517,0l0.689,-3.732l-5.171,0c-3.391,0 -6.177,-1.638 -5.086,-7.787l2.528,-14.311l10.545,0l0.661,-3.904l-10.516,0l1.494,-8.59l-3.362,0l-2.585,8.217Z" style="fill:#dadada;fill-rule:nonzero;"/><path d="M369.939,212.965l4.452,0l5.142,-29.245l-4.452,0l-5.142,29.245Zm5.833,-37.665c0,1.349 1.005,2.412 2.613,2.412c2.067,0 3.647,-1.465 3.647,-3.187c0,-1.35 -0.977,-2.441 -2.613,-2.441c-2.039,0 -3.647,1.493 -3.647,3.216Z" style="fill:#dadada;fill-rule:nonzero;"/><path d="M385.914,200.584c0,7.414 5.542,13.186 13.588,13.186c10.058,0 18.703,-8.042 18.703,-17.668c0,-7.414 -5.571,-13.186 -13.646,-13.186c-10.086,0 -18.645,8.071 -18.645,17.668Zm4.479,-0.459c0,-7.472 6.58,-13.305 13.707,-13.305c5.632,0 9.655,4.138 9.655,9.77c0,7.471 -6.609,13.276 -13.707,13.276c-5.632,0 -9.655,-4.109 -9.655,-9.741Z" style="fill:#dadada;fill-rule:nonzero;"/><path d="M454.809,197.106c1.666,-9.453 -1.923,-14.19 -10.742,-14.19c-4.568,0 -9.022,2.239 -11.866,5.082l0.344,-4.278l-3.706,0l-5.143,29.245l4.425,0l2.758,-15.599c1.149,-6.294 6.292,-10.546 11.924,-10.546c5.947,0 8.848,3.074 7.556,10.343l-2.787,15.802l4.452,0l2.785,-15.859Z" style="fill:#dadada;fill-rule:nonzero;"/></g><g><path d="M1025.88,600.238l6.16,0l-1.277,7.265c-2.98,2.304 -6.962,3.757 -10.593,3.757c-7.013,0 -11.921,-5.386 -11.921,-12.298c0,-9.015 8.289,-16.555 17.03,-16.555c4.032,0 7.337,1.653 9.441,4.358l3.231,-2.429c-2.73,-3.33 -7.138,-5.382 -12.247,-5.382c-11.119,0 -21.434,9.364 -21.434,20.533c0,8.742 6.508,15.251 15.474,15.251c5.059,0 10.744,-2.252 14.675,-5.833l2.079,-11.669l-10.093,0l-0.525,3.002Z" style="fill:#dadada;fill-rule:nonzero;"/><path d="M1059.59,602.892c7.088,0 9.74,-4.104 9.74,-8.012c0,-3.783 -3.653,-7.161 -10.416,-7.161c-8.641,0 -15.902,7.161 -15.902,15.424c0,6.363 4.58,11.495 11.494,11.495c4.408,0 8.366,-2.002 10.971,-4.405l-1.854,-2.305c-2.304,2.029 -4.959,3.357 -8.491,3.357c-4.809,0 -8.266,-3.582 -8.341,-8.393l12.799,0Zm-1.177,-11.895c4.709,0 7.189,2.204 7.189,4.284c0,2.33 -1.904,4.309 -5.886,4.384l-12.524,0c1.402,-4.986 6.111,-8.668 11.221,-8.668Z" style="fill:#dadada;fill-rule:nonzero;"/><path d="M1099.68,600.088c1.452,-8.24 -1.676,-12.369 -9.363,-12.369c-3.982,0 -7.864,1.952 -10.343,4.43l0.3,-3.729l-3.23,0l-4.483,25.492l3.857,0l2.404,-13.597c1.002,-5.487 5.484,-9.193 10.393,-9.193c5.184,0 7.713,2.68 6.586,9.016l-2.429,13.774l3.881,0l2.427,-13.824Z" style="fill:#dadada;fill-rule:nonzero;"/><path d="M1122.1,602.892c7.087,0 9.74,-4.104 9.74,-8.012c0,-3.783 -3.653,-7.161 -10.416,-7.161c-8.642,0 -15.902,7.161 -15.902,15.424c0,6.363 4.58,11.495 11.493,11.495c4.409,0 8.366,-2.002 10.971,-4.405l-1.853,-2.305c-2.305,2.029 -4.96,3.357 -8.491,3.357c-4.81,0 -8.266,-3.582 -8.341,-8.393l12.799,0Zm-1.177,-11.895c4.709,0 7.188,2.204 7.188,4.284c0,2.33 -1.903,4.309 -5.886,4.384l-12.524,0c1.403,-4.986 6.112,-8.668 11.222,-8.668Z" style="fill:#dadada;fill-rule:nonzero;"/><path d="M1155.13,588.42l-2.904,0c-4.207,0 -7.662,1.802 -9.841,4.255l0.351,-4.255l-3.205,0l-4.482,25.492l3.831,0l2.228,-12.672c1.077,-6.136 5.384,-9.367 10.692,-9.367l2.729,0l0.601,-3.453Z" style="fill:#dadada;fill-rule:nonzero;"/><path d="M1156.44,613.912l3.88,0l4.482,-25.492l-3.881,0l-4.481,25.492Zm5.084,-32.831c0,1.176 0.876,2.102 2.277,2.102c1.802,0 3.179,-1.276 3.179,-2.778c0,-1.176 -0.851,-2.127 -2.278,-2.127c-1.777,0 -3.178,1.301 -3.178,2.803Z" style="fill:#dadada;fill-rule:nonzero;"/><path d="M1190.32,608.58c-2.129,1.753 -4.659,2.63 -7.589,2.63c-4.608,0 -8.389,-3.256 -8.389,-8.466c0,-6.938 6.135,-11.622 11.945,-11.622c2.83,0 5.134,0.952 6.637,2.63l2.83,-2.48c-2.404,-2.502 -5.66,-3.553 -8.891,-3.553c-8.74,0 -16.425,7.06 -16.425,15.376c0,6.437 4.68,11.393 11.667,11.518c3.281,0.075 6.887,-1.026 10.193,-3.528l-1.978,-2.505Z" style="fill:#dadada;fill-rule:nonzero;"/><path d="M1222.87,613.912l4.131,0l-8.438,-34.056l-3.832,0l-20.484,34.056l4.207,0l4.783,-7.964l17.654,0l1.979,7.964Zm-7.337,-28.397l0.25,-0.576l0.05,0.576l4.207,17.005l-14.749,0l10.242,-17.005Z" style="fill:#dadada;fill-rule:nonzero;"/><path d="M1232.57,601.166c-1.327,7.489 3.553,13.472 11.392,13.472c4.432,0 8.54,-2.052 11.144,-4.981l-0.451,4.255l3.356,0l6.236,-35.259l-3.857,0l-2.504,14.197c-1.753,-2.879 -5.034,-5.131 -9.592,-5.131c-7.863,0 -14.474,5.983 -15.725,13.447l0.001,0Zm3.854,0c1.001,-5.736 6.236,-10.044 11.82,-10.044c4.959,0 8.49,3.607 8.49,8.516c0,6.538 -5.785,11.597 -11.996,11.597c-5.61,0 -9.316,-4.283 -8.314,-10.069Z" style="fill:#dadada;fill-rule:nonzero;"/><path d="M1265.42,612.086c2.705,1.876 6.008,2.552 9.715,2.552c7.991,0 13.022,-3.603 13.022,-9.139c0,-4.659 -4.931,-5.635 -8.889,-6.136c-4.484,-0.476 -6.789,-1.453 -6.789,-3.557c0,-2.179 1.904,-4.859 7.816,-4.859c3.232,0 6.01,1.302 7.962,2.379l1.703,-3.055c-2.329,-1.401 -5.657,-2.552 -9.414,-2.552c-8.942,0 -12.045,4.38 -12.045,8.738c0,4.408 4.605,5.36 8.212,5.836c4.409,0.676 7.164,1.428 7.164,3.958c0,3.005 -3.031,5.109 -8.717,5.109c-2.605,0 -5.383,-0.676 -7.987,-2.479l-1.753,3.205Z" style="fill:#dadada;fill-rule:nonzero;"/></g><g><path d="M1147.12,264.834l3.248,0l4.966,-28.144l-3.249,0l-4.965,28.144Z" style="fill:#dadada;fill-rule:nonzero;"/><path d="M1180.25,253.41c1.2,-6.809 -1.385,-10.221 -7.738,-10.221c-3.291,0 -6.498,1.613 -8.547,3.66l0.248,-3.081l-2.67,0l-3.704,21.066l3.187,0l1.987,-11.236c0.827,-4.534 4.532,-7.597 8.589,-7.597c4.284,0 6.373,2.214 5.443,7.45l-2.008,11.383l3.207,0l2.006,-11.424Z" style="fill:#dadada;fill-rule:nonzero;"/><path d="M1189.56,243.499l-3.786,0.517l-0.434,2.564l3.744,0l-1.82,10.329c-1.096,6.334 1.82,8.277 6.103,8.277l3.974,0l0.497,-2.688l-3.726,0c-2.442,0 -4.449,-1.18 -3.663,-5.609l1.821,-10.309l7.596,0l0.476,-2.812l-7.575,0l1.076,-6.188l-2.421,0l-1.862,5.919Z" style="fill:#dadada;fill-rule:nonzero;"/><path d="M1217.19,255.728c5.857,0 8.049,-3.392 8.049,-6.622c0,-3.126 -3.019,-5.917 -8.608,-5.917c-7.141,0 -13.141,5.917 -13.141,12.746c0,5.259 3.785,9.499 9.498,9.499c3.643,0 6.914,-1.654 9.067,-3.64l-1.532,-1.905c-1.904,1.677 -4.099,2.775 -7.017,2.775c-3.975,0 -6.831,-2.961 -6.893,-6.936l10.577,0Zm-0.973,-9.831c3.892,0 5.941,1.822 5.941,3.541c0,1.925 -1.573,3.561 -4.864,3.623l-10.35,0c1.159,-4.12 5.051,-7.164 9.273,-7.164Z" style="fill:#dadada;fill-rule:nonzero;"/><path d="M1244.49,243.768l-2.401,0c-3.476,0 -6.332,1.489 -8.132,3.516l0.29,-3.516l-2.649,0l-3.704,21.066l3.166,0l1.842,-10.472c0.89,-5.071 4.449,-7.74 8.836,-7.74l2.255,0l0.497,-2.854Z" style="fill:#dadada;fill-rule:nonzero;"/><path d="M1244.06,263.325c2.235,1.551 4.965,2.109 8.028,2.109c6.604,0 10.761,-2.977 10.761,-7.552c0,-3.85 -4.074,-4.657 -7.345,-5.071c-3.706,-0.393 -5.611,-1.201 -5.611,-2.939c0,-1.801 1.574,-4.016 6.459,-4.016c2.671,0 4.967,1.076 6.58,1.966l1.407,-2.524c-1.924,-1.158 -4.675,-2.109 -7.78,-2.109c-7.389,0 -9.954,3.619 -9.954,7.221c0,3.643 3.806,4.429 6.787,4.823c3.644,0.559 5.921,1.18 5.921,3.27c0,2.484 -2.505,4.223 -7.204,4.223c-2.153,0 -4.449,-0.559 -6.601,-2.049l-1.448,2.648Z" style="fill:#dadada;fill-rule:nonzero;"/><path d="M1266.76,264.834l3.207,0l3.704,-21.066l-3.207,0l-3.704,21.066Zm4.202,-27.131c0,0.972 0.724,1.737 1.882,1.737c1.489,0 2.627,-1.055 2.627,-2.296c0,-0.972 -0.703,-1.758 -1.882,-1.758c-1.469,0 -2.627,1.076 -2.627,2.317Z" style="fill:#dadada;fill-rule:nonzero;"/><path d="M1282.76,243.499l-3.786,0.517l-0.434,2.564l3.744,0l-1.82,10.329c-1.097,6.334 1.82,8.277 6.103,8.277l3.974,0l0.496,-2.688l-3.725,0c-2.442,0 -4.449,-1.18 -3.663,-5.609l1.821,-10.309l7.596,0l0.476,-2.812l-7.575,0l1.076,-6.188l-2.421,0l-1.862,5.919Z" style="fill:#dadada;fill-rule:nonzero;"/><path d="M1296.48,264.834l3.207,0l3.704,-21.066l-3.207,0l-3.704,21.066Zm4.201,-27.131c0,0.972 0.724,1.737 1.883,1.737c1.489,0 2.627,-1.055 2.627,-2.296c0,-0.972 -0.704,-1.758 -1.883,-1.758c-1.468,0 -2.627,1.076 -2.627,2.317Z" style="fill:#dadada;fill-rule:nonzero;"/><path d="M1307.95,255.997c0,5.321 3.867,9.562 9.6,9.562c3.705,0 7.078,-1.758 9.231,-4.075l-0.373,3.35l2.773,0l3.726,-21.066l-2.794,0l-0.89,3.704c-1.428,-2.36 -4.16,-4.407 -7.989,-4.407c-7.285,0 -13.284,5.999 -13.284,12.932Zm3.246,-0.412c0,-5.382 4.761,-9.708 9.955,-9.708c4.077,0 6.975,3.105 6.975,7.162c0,5.381 -4.822,9.708 -9.955,9.708c-4.077,0 -6.975,-3.105 -6.975,-7.162Z" style="fill:#dadada;fill-rule:nonzero;"/><path d="M1342.07,235.676l-4.054,22.911c-0.765,4.531 -0.103,6.247 4.882,6.247l1.035,0l0.497,-2.812l-0.89,0c-2.463,0 -2.774,-0.807 -2.339,-3.456l4.036,-22.89l-3.167,0Z" style="fill:#dadada;fill-rule:nonzero;"/></g><g><path d="M686.098,19.199l-14.486,0l-0.441,2.465l10.732,0l-7.198,7.641l-0.276,1.526l3.093,0.019c3.074,0 5.173,1.896 5.173,4.713c0,3.757 -3.59,6.721 -7.217,6.721c-2.209,0 -4.86,-1.197 -5.007,-4.732l-2.835,0c-0.239,5.449 3.774,7.197 7.548,7.197c5.596,0 10.38,-4.38 10.38,-9.701c0,-3.904 -2.722,-6.129 -6.238,-6.368c-0.092,-0.019 -0.313,-0.055 -0.534,-0.074c-0.129,-0.018 -0.276,-0.018 -0.423,-0.018l7.434,-7.733l0.295,-1.656Z" style="fill:#dadada;fill-rule:nonzero;"/><path d="M698.304,44.767c7.991,0 12.867,-7.638 12.867,-15.886c0,-5.431 -2.575,-10.234 -8.54,-10.234c-7.641,0 -12.849,7.546 -12.849,15.923c0,5.652 2.814,10.197 8.522,10.197Zm0.313,-2.483c-4.069,0 -5.984,-3.627 -5.984,-7.99c0,-6.499 3.959,-13.164 9.685,-13.164c4.216,0 5.983,3.848 5.983,8.119c0,6.462 -3.848,13.035 -9.684,13.035Z" style="fill:#dadada;fill-rule:nonzero;"/><path d="M723.561,44.767c7.991,0 12.867,-7.638 12.867,-15.886c0,-5.431 -2.575,-10.234 -8.54,-10.234c-7.641,0 -12.849,7.546 -12.849,15.923c0,5.652 2.814,10.197 8.522,10.197Zm0.313,-2.483c-4.069,0 -5.984,-3.627 -5.984,-7.99c0,-6.499 3.959,-13.164 9.685,-13.164c4.216,0 5.983,3.848 5.983,8.119c0,6.462 -3.848,13.035 -9.684,13.035Z" style="fill:#dadada;fill-rule:nonzero;"/><path d="M742.983,19.199l-3.442,-0.055l6.774,12.02l-11.928,13.069l3.589,0l9.83,-10.897l6.148,10.897l3.46,0.055l-7.344,-12.995l11.173,-12.094l-3.645,0l-9.074,9.959l-5.541,-9.959Z" style="fill:#dadada;fill-rule:nonzero;"/><path d="M760.251,44.233l17.231,0l0.441,-2.464l-8.688,0c-1.381,0 -2.356,0.018 -3.038,0.073c-0.405,0.019 -0.736,0.037 -1.012,0.055l8.358,-6.499c4.013,-3.037 6.772,-5.67 6.772,-9.794c0,-3.83 -2.686,-6.718 -7.03,-6.718c-5.228,0 -8.873,3.938 -9.61,8.154l2.872,0c0.589,-3.535 3.535,-5.652 6.388,-5.652c2.577,0 4.492,1.822 4.492,4.529c0,3.48 -2.541,5.542 -6.591,8.598l-10.272,7.897l-0.313,1.821Z" style="fill:#dadada;fill-rule:nonzero;"/><path d="M791.013,21.682l10.564,0l0.423,-2.483l-13.068,0l-3.111,10.106l1.197,1.195l5.891,0.018c3.074,0 5.117,2.173 5.117,5.009c0,3.774 -3.589,6.757 -7.216,6.757c-2.209,0 -4.86,-1.197 -5.007,-4.732l-2.835,0c-0.239,5.449 3.774,7.197 7.548,7.197c5.596,0 10.38,-4.361 10.38,-9.738c0,-4.032 -2.704,-6.957 -7.085,-6.957l-4.768,0l1.97,-6.372Z" style="fill:#dadada;fill-rule:nonzero;"/><path d="M816.452,44.767c7.991,0 12.867,-7.638 12.867,-15.886c0,-5.431 -2.575,-10.234 -8.54,-10.234c-7.641,0 -12.849,7.546 -12.849,15.923c0,5.652 2.815,10.197 8.522,10.197Zm0.313,-2.483c-4.069,0 -5.984,-3.627 -5.984,-7.99c0,-6.499 3.959,-13.164 9.685,-13.164c4.216,0 5.984,3.848 5.984,8.119c0,6.462 -3.848,13.035 -9.685,13.035Z" style="fill:#dadada;fill-rule:nonzero;"/></g><g><path d="M1262.7,19.228l-15.231,0l-0.465,2.591l11.285,0l-7.569,8.035l-0.29,1.605l3.252,0.019c3.233,0 5.439,1.994 5.439,4.956c0,3.95 -3.774,7.067 -7.588,7.067c-2.322,0 -5.11,-1.259 -5.265,-4.976l-2.98,0c-0.252,5.73 3.968,7.567 7.936,7.567c5.884,0 10.914,-4.605 10.914,-10.2c0,-4.104 -2.862,-6.444 -6.559,-6.696c-0.097,-0.019 -0.329,-0.058 -0.561,-0.077c-0.136,-0.019 -0.291,-0.019 -0.446,-0.019l7.818,-8.132l0.31,-1.74Z" style="fill:#dadada;fill-rule:nonzero;"/><path d="M1284.44,19.228l-15.231,0l-0.465,2.591l11.285,0l-7.568,8.035l-0.291,1.605l3.252,0.019c3.233,0 5.44,1.994 5.44,4.956c0,3.95 -3.775,7.067 -7.588,7.067c-2.323,0 -5.11,-1.259 -5.265,-4.976l-2.981,0c-0.252,5.73 3.968,7.567 7.936,7.567c5.884,0 10.915,-4.605 10.915,-10.2c0,-4.104 -2.863,-6.444 -6.56,-6.696c-0.096,-0.019 -0.329,-0.058 -0.561,-0.077c-0.136,-0.019 -0.29,-0.019 -0.445,-0.019l7.817,-8.132l0.31,-1.74Z" style="fill:#dadada;fill-rule:nonzero;"/><path d="M1286.3,38.622c0,4.182 3.017,7.431 7.741,7.431c5.885,0 10.78,-4.527 10.78,-9.928c0,-4.105 -2.939,-7.296 -6.869,-7.296c-1.452,0 -2.769,0.425 -3.989,1.14l8.982,-10.741l-3.541,0l-7.938,9.659c-3.696,4.527 -5.166,6.231 -5.166,9.735Zm2.978,-0.348c0,-2.827 3.059,-7.048 7.377,-7.048c3.02,0 5.169,2.304 5.169,5.266c0,3.892 -3.563,6.97 -7.318,6.97c-3.04,0 -5.228,-2.246 -5.228,-5.188Z" style="fill:#dadada;fill-rule:nonzero;"/><path d="M1314.83,19.228l-3.619,-0.058l7.123,12.638l-12.542,13.742l3.774,0l10.335,-11.458l6.465,11.458l3.639,0.058l-7.723,-13.664l11.748,-12.716l-3.832,0l-9.542,10.471l-5.826,-10.471Z" style="fill:#dadada;fill-rule:nonzero;"/><path d="M1332.99,45.55l18.117,0l0.464,-2.591l-9.135,0c-1.452,0 -2.478,0.019 -3.194,0.077c-0.426,0.019 -0.774,0.039 -1.065,0.058l8.788,-6.833c4.22,-3.194 7.121,-5.963 7.121,-10.299c0,-4.027 -2.824,-7.063 -7.392,-7.063c-5.497,0 -9.33,4.14 -10.104,8.573l3.02,0c0.619,-3.717 3.716,-5.943 6.716,-5.943c2.71,0 4.723,1.916 4.723,4.762c0,3.659 -2.671,5.827 -6.929,9.041l-10.801,8.304l-0.329,1.914Z" style="fill:#dadada;fill-rule:nonzero;"/><path d="M1363.97,26.137c0,-2.614 2.633,-4.879 5.692,-4.879c2.44,0 4.144,1.665 4.144,3.737c0,2.633 -2.595,4.859 -5.673,4.859c-2.556,0 -4.163,-1.645 -4.163,-3.717Zm-3.736,12.62c0,-3.504 3.601,-6.331 7.434,-6.331c3.195,0 5.499,2.091 5.499,4.879c0,3.505 -3.563,6.196 -7.454,6.196c-3.155,0 -5.479,-2.014 -5.479,-4.744Zm0.758,-12.426c0,2.129 1.16,4.046 2.997,4.664c-3.522,0.987 -6.772,4.103 -6.772,8.266c0,3.949 3.114,6.851 8.07,6.851c6.098,0 10.878,-3.986 10.878,-9.097c0,-3.001 -1.76,-5.285 -4.295,-6c2.612,-0.774 4.991,-3.523 4.991,-6.562c0,-3.485 -2.804,-5.787 -6.734,-5.787c-4.763,0 -9.135,3.192 -9.135,7.665Z" style="fill:#dadada;fill-rule:nonzero;"/><path d="M1391.44,46.112c8.402,0 13.529,-8.032 13.529,-16.704c0,-5.711 -2.708,-10.761 -8.98,-10.761c-8.034,0 -13.51,7.934 -13.51,16.743c0,5.943 2.959,10.722 8.961,10.722Zm0.329,-2.611c-4.279,0 -6.292,-3.814 -6.292,-8.402c0,-6.833 4.162,-13.841 10.183,-13.841c4.433,0 6.292,4.046 6.292,8.537c0,6.795 -4.046,13.706 -10.183,13.706Z" style="fill:#dadada;fill-rule:nonzero;"/></g><g><path d="M35,397.792l3.742,0l18.798,-28.333l0.356,-1.959l-20.246,0l-0.534,2.982l16.081,0l-18.197,27.31Z" style="fill:#dadada;fill-rule:nonzero;"/><path d="M56.963,397.792l20.85,0l0.534,-2.982l-10.513,0c-1.671,0 -2.852,0.022 -3.676,0.089c-0.49,0.022 -0.891,0.044 -1.225,0.067l10.113,-7.864c4.856,-3.676 8.195,-6.862 8.195,-11.852c0,-4.634 -3.25,-8.128 -8.507,-8.128c-6.326,0 -10.736,4.764 -11.627,9.866l3.475,0c0.712,-4.278 4.276,-6.84 7.729,-6.84c3.119,0 5.435,2.206 5.435,5.481c0,4.21 -3.074,6.705 -7.974,10.403l-12.43,9.557l-0.379,2.203Z" style="fill:#dadada;fill-rule:nonzero;"/><path d="M92.623,375.451c0,-3.008 3.031,-5.615 6.551,-5.615c2.807,0 4.768,1.917 4.768,4.301c0,3.03 -2.986,5.592 -6.528,5.592c-2.941,0 -4.791,-1.893 -4.791,-4.278Zm-4.299,14.524c0,-4.033 4.144,-7.286 8.555,-7.286c3.676,0 6.328,2.407 6.328,5.615c0,4.033 -4.1,7.13 -8.578,7.13c-3.63,0 -6.305,-2.318 -6.305,-5.459Zm0.872,-14.301c0,2.451 1.335,4.656 3.45,5.368c-4.054,1.135 -7.794,4.722 -7.794,9.512c0,4.545 3.584,7.884 9.286,7.884c7.019,0 12.519,-4.586 12.519,-10.468c0,-3.454 -2.026,-6.082 -4.943,-6.905c3.007,-0.89 5.745,-4.054 5.745,-7.552c0,-4.01 -3.228,-6.659 -7.75,-6.659c-5.481,0 -10.513,3.673 -10.513,8.82Z" style="fill:#dadada;fill-rule:nonzero;"/><path d="M119.088,367.5l-4.165,-0.066l8.197,14.544l-14.433,15.814l4.343,0l11.894,-13.186l7.439,13.186l4.187,0.067l-8.887,-15.725l13.52,-14.634l-4.41,0l-10.981,12.05l-6.704,-12.05Z" style="fill:#dadada;fill-rule:nonzero;"/><path d="M165.218,375.384c0,-4.812 -3.45,-8.552 -8.886,-8.552c-6.795,0 -12.428,5.21 -12.428,11.426c0,4.723 3.405,8.396 7.928,8.396c1.626,0 3.186,-0.445 4.545,-1.313l-10.381,12.451l4.076,0l9.201,-11.204c4.276,-5.233 5.945,-7.216 5.945,-11.204Zm-3.45,0.423c0,3.231 -3.475,8.088 -8.466,8.088c-3.475,0 -5.948,-2.651 -5.948,-6.038c0,-4.478 4.099,-8.043 8.444,-8.043c3.453,0 5.97,2.562 5.97,5.993Z" style="fill:#dadada;fill-rule:nonzero;"/><path d="M181.124,398.438c9.669,0 15.569,-9.242 15.569,-19.223c0,-6.572 -3.116,-12.383 -10.334,-12.383c-9.245,0 -15.547,9.131 -15.547,19.267c0,6.839 3.406,12.339 10.312,12.339Zm0.379,-3.004c-4.924,0 -7.241,-4.389 -7.241,-9.669c0,-7.864 4.79,-15.929 11.719,-15.929c5.101,0 7.24,4.657 7.24,9.825c0,7.819 -4.656,15.773 -11.718,15.773Z" style="fill:#dadada;fill-rule:nonzero;"/></g><g><path d="M1575.6,271.859l-14.363,0l-0.438,2.444l10.642,0l-7.137,7.577l-0.274,1.513l3.067,0.018c3.048,0 5.129,1.881 5.129,4.674c0,3.724 -3.56,6.664 -7.156,6.664c-2.19,0 -4.818,-1.187 -4.964,-4.692l-2.811,0c-0.238,5.403 3.742,7.135 7.483,7.135c5.549,0 10.293,-4.342 10.293,-9.618c0,-3.87 -2.699,-6.077 -6.186,-6.314c-0.091,-0.018 -0.31,-0.055 -0.529,-0.073c-0.128,-0.018 -0.274,-0.018 -0.42,-0.018l7.372,-7.668l0.292,-1.642Z" style="fill:#dadada;fill-rule:nonzero;"/><path d="M1587.7,297.211c7.923,0 12.758,-7.574 12.758,-15.752c0,-5.385 -2.554,-10.147 -8.468,-10.147c-7.576,0 -12.74,7.482 -12.74,15.788c0,5.604 2.791,10.111 8.45,10.111Zm0.31,-2.462c-4.034,0 -5.933,-3.596 -5.933,-7.923c0,-6.444 3.925,-13.052 9.603,-13.052c4.18,0 5.933,3.815 5.933,8.05c0,6.408 -3.816,12.925 -9.603,12.925Z" style="fill:#dadada;fill-rule:nonzero;"/><path d="M1612.74,297.211c7.923,0 12.758,-7.574 12.758,-15.752c0,-5.385 -2.553,-10.147 -8.468,-10.147c-7.576,0 -12.74,7.482 -12.74,15.788c0,5.604 2.791,10.111 8.45,10.111Zm0.31,-2.462c-4.034,0 -5.933,-3.596 -5.933,-7.923c0,-6.444 3.925,-13.052 9.603,-13.052c4.18,0 5.933,3.815 5.933,8.05c0,6.408 -3.816,12.925 -9.603,12.925Z" style="fill:#dadada;fill-rule:nonzero;"/><path d="M1632,271.859l-3.413,-0.054l6.716,11.918l-11.827,12.958l3.559,0l9.746,-10.804l6.096,10.804l3.432,0.055l-7.283,-12.885l11.079,-11.992l-3.614,0l-8.998,9.874l-5.493,-9.874Z" style="fill:#dadada;fill-rule:nonzero;"/><path d="M1650.06,290.148c0,3.944 2.845,7.008 7.299,7.008c5.55,0 10.166,-4.269 10.166,-9.363c0,-3.87 -2.772,-6.88 -6.478,-6.88c-1.369,0 -2.61,0.401 -3.761,1.076l8.47,-10.13l-3.339,0l-7.486,9.109c-3.485,4.269 -4.871,5.876 -4.871,9.18Zm2.808,-0.328c0,-2.666 2.885,-6.646 6.956,-6.646c2.848,0 4.875,2.173 4.875,4.966c0,3.669 -3.36,6.572 -6.901,6.572c-2.867,0 -4.93,-2.117 -4.93,-4.892Z" style="fill:#dadada;fill-rule:nonzero;"/><path d="M1681.17,297.211c7.923,0 12.758,-7.574 12.758,-15.752c0,-5.385 -2.554,-10.147 -8.468,-10.147c-7.576,0 -12.74,7.482 -12.74,15.788c0,5.604 2.79,10.111 8.45,10.111Zm0.31,-2.462c-4.035,0 -5.933,-3.596 -5.933,-7.923c0,-6.444 3.925,-13.052 9.602,-13.052c4.181,0 5.933,3.815 5.933,8.05c0,6.408 -3.815,12.925 -9.602,12.925Z" style="fill:#dadada;fill-rule:nonzero;"/><path d="M1706.22,297.211c7.923,0 12.758,-7.574 12.758,-15.752c0,-5.385 -2.554,-10.147 -8.468,-10.147c-7.576,0 -12.74,7.482 -12.74,15.788c0,5.604 2.791,10.111 8.45,10.111Zm0.31,-2.462c-4.034,0 -5.933,-3.596 -5.933,-7.923c0,-6.444 3.925,-13.052 9.603,-13.052c4.18,0 5.933,3.815 5.933,8.05c0,6.408 -3.816,12.925 -9.603,12.925Z" style="fill:#dadada;fill-rule:nonzero;"/></g><path d="M704.007,87.753l0,-4.815l66.51,0l0,-4.47l22.421,6.877l-22.421,6.878l0,-4.47l-66.51,0Z" style="fill:#dadada;"/><path d="M1273.63,94.724l0,-4.814l66.511,0l0,-4.47l22.421,6.877l-22.421,6.878l0,-4.471l-66.511,0Z" style="fill:#dadada;"/><path d="M1480.26,119.624l230.924,1.773" style="fill:none;stroke:#b2b2b2;stroke-width:3px;stroke-dasharray:15,15,0,0;"/><g><path d="M312.89,359.263l4.871,0c10.862,0 16.997,-5.373 18.765,-15.659l5.918,-33.421l-5.665,0l-5.918,33.385c-1.155,6.749 -4.475,10.719 -12.198,10.719l-4.871,0l-0.902,4.976Z" style="fill:#4aca96;fill-rule:nonzero;stroke:#4aca96;stroke-width:1px;stroke-linecap:butt;stroke-miterlimit:1.41421;"/><path d="M388.895,340.895c1.912,-10.793 -5.085,-19.379 -16.454,-19.379c-6.496,0 -12.452,3.065 -16.169,7.069l0.577,-6.059l-4.655,0l-8.699,49.297l5.559,0l3.32,-18.871c2.49,4.149 7.291,7.322 13.823,7.322c11.369,0 20.786,-8.586 22.698,-19.379Zm-5.59,0c-1.444,8.266 -8.987,14.475 -17.036,14.475c-7.146,0 -12.235,-5.198 -12.235,-12.309c0,-9.386 8.374,-16.678 17.324,-16.678c8.049,0 13.389,6.173 11.947,14.512Z" style="fill:#4aca96;fill-rule:nonzero;stroke:#4aca96;stroke-width:1px;stroke-linecap:butt;stroke-miterlimit:1.41421;"/><path d="M420.406,343.383c10.214,0 14.036,-5.915 14.036,-11.548c0,-5.452 -5.265,-10.319 -15.011,-10.319c-12.454,0 -22.917,10.319 -22.917,22.228c0,9.171 6.601,16.566 16.564,16.566c6.353,0 12.057,-2.885 15.811,-6.348l-2.671,-3.322c-3.321,2.924 -7.148,4.838 -12.238,4.838c-6.93,0 -11.912,-5.163 -12.02,-12.095l18.446,0Zm-1.697,-17.144c6.787,0 10.36,3.177 10.36,6.174c0,3.358 -2.743,6.21 -8.483,6.318l-18.049,0c2.022,-7.185 8.808,-12.492 16.172,-12.492Z" style="fill:#4aca96;fill-rule:nonzero;stroke:#4aca96;stroke-width:1px;stroke-linecap:butt;stroke-miterlimit:1.41421;"/><path d="M439.319,343.819c0,9.24 6.745,16.166 16.418,16.166c6.532,0 12.487,-3.029 16.241,-6.998l-0.397,2.383c-0.866,5.193 -4.656,14.328 -16.241,14.328c-7.977,0 -11.657,-4.586 -12.054,-9.027l-5.374,0c-0.109,6.463 4.581,13.751 16.85,13.751c14.365,0 20.789,-10.429 22.377,-19.522l5.703,-32.374l-4.656,0l-1.733,6.605c-2.382,-4.118 -7.29,-7.579 -14.003,-7.579c-12.705,0 -23.131,10.21 -23.131,22.267l0,0Zm5.662,-0.722c0,-9.35 8.337,-16.641 17.288,-16.641c7.146,0 12.235,5.162 12.235,12.237c0,9.421 -8.337,16.677 -17.288,16.677c-7.182,0 -12.235,-5.162 -12.235,-12.273Z" style="fill:#4aca96;fill-rule:nonzero;stroke:#4aca96;stroke-width:1px;stroke-linecap:butt;stroke-miterlimit:1.41421;"/></g></g></g></svg>